/* XPM */
static char *ffd59d8fee8c416fa60c77aedc0e69bdC9EHu8ve8pBJGu7x[] = {
/* columns rows colors chars-per-pixel */
"72 71 243 2 ",
"   c #2F190B",
".  c #341503",
"X  c #3C1604",
"o  c #361B05",
"O  c #3B1C05",
"+  c #35170B",
"@  c #3B150B",
"#  c #361A0B",
"$  c #3B1D0C",
"%  c #351D14",
"&  c #3C1D12",
"*  c #3C1D19",
"=  c #371613",
"-  c #36220C",
";  c #3C220C",
":  c #3C2206",
">  c #362112",
",  c #3D2213",
"<  c #3C241A",
"1  c #2E210E",
"2  c #382323",
"3  c #431C04",
"4  c #431E0C",
"5  c #4A1D0D",
"6  c #481B04",
"7  c #421D13",
"8  c #451C16",
"9  c #44220D",
"0  c #4A230C",
"q  c #472408",
"w  c #5A260E",
"e  c #542B0D",
"r  c #55280B",
"t  c #56300D",
"y  c #432313",
"u  c #4A2413",
"i  c #4D2A14",
"p  c #44241A",
"a  c #492419",
"s  c #4B2A1A",
"d  c #442A19",
"f  c #522613",
"g  c #532A12",
"h  c #5C2B13",
"j  c #56291A",
"k  c #4D3017",
"l  c #533115",
"z  c #5B351A",
"x  c #4A300D",
"c  c #65340D",
"v  c #75340D",
"b  c #632C14",
"n  c #692C12",
"m  c #662A17",
"M  c #732C16",
"N  c #643414",
"B  c #653915",
"V  c #64341B",
"C  c #683819",
"Z  c #763514",
"A  c #7A3515",
"S  c #773915",
"D  c #7B3B14",
"F  c #753419",
"G  c #7A341B",
"H  c #7B3B1B",
"J  c #753C1E",
"K  c #662B0D",
"L  c #5E3A23",
"P  c #563421",
"I  c #4E2821",
"U  c #643523",
"Y  c #623C24",
"T  c #6A3C25",
"R  c #653C29",
"E  c #6C3D29",
"W  c #7A3D27",
"Q  c #663C31",
"!  c #7B4415",
"~  c #7C4618",
"^  c #6D422B",
"/  c #674323",
"(  c #72432B",
")  c #7E4D2C",
"_  c #764429",
"`  c #7D502F",
"'  c #734532",
"]  c #7C4D31",
"[  c #7D5132",
"{  c #6D4231",
"}  c #9C3D0E",
"|  c #933A0D",
" . c #833918",
".. c #9C3E13",
"X. c #9D3E1A",
"o. c #973C12",
"O. c #8A3314",
"+. c #A83F07",
"@. c #A13E14",
"#. c #A23E1C",
"$. c #AA3F18",
"%. c #813920",
"&. c #A93B24",
"*. c #96430E",
"=. c #9B430E",
"-. c #9C490E",
";. c #864819",
":. c #9D4314",
">. c #9D4A13",
",. c #9D431A",
"<. c #9D4A1A",
"1. c #95431A",
"2. c #A3430D",
"3. c #A4490E",
"4. c #AD5E0E",
"5. c #A24315",
"6. c #AA4415",
"7. c #A34C15",
"8. c #A94B15",
"9. c #A3441A",
"0. c #AC441B",
"q. c #A44B1B",
"w. c #AA4B1C",
"e. c #A45215",
"r. c #AC5315",
"t. c #A65A16",
"y. c #AB5D15",
"u. c #A5521A",
"i. c #AB541C",
"p. c #A65B1A",
"a. c #AC5D1B",
"s. c #B15D16",
"d. c #B25D1C",
"f. c #B25417",
"g. c #B04718",
"h. c #AA610F",
"j. c #AC6115",
"k. c #AD621B",
"l. c #A76215",
"z. c #B36215",
"x. c #B2621C",
"c. c #BA631C",
"v. c #B4691A",
"b. c #834D2D",
"n. c #854829",
"m. c #9F4421",
"M. c #814E34",
"N. c #884B36",
"B. c #815132",
"V. c #8C563A",
"C. c #895536",
"Z. c #935C3D",
"A. c #955A3C",
"S. c #8D532C",
"D. c #A34321",
"F. c #A54D22",
"G. c #A94D22",
"H. c #AB4424",
"J. c #A65422",
"K. c #AA5524",
"L. c #AC5B22",
"P. c #AB582B",
"I. c #B25D23",
"U. c #B35928",
"Y. c #B55C35",
"T. c #AE542E",
"R. c #9A643E",
"E. c #AD6222",
"W. c #A76127",
"Q. c #B26222",
"!. c #B46926",
"~. c #B4632A",
"^. c #B66A2A",
"/. c #B96425",
"(. c #BB693B",
"). c #AA6538",
"_. c #C96E3F",
"`. c #945A41",
"'. c #8F5D42",
"]. c #9B6343",
"[. c #8B6340",
"{. c #AA6C47",
"}. c #A5694B",
"|. c #A76947",
" X c #BD6C46",
".X c #B36B44",
"XX c #B4734A",
"oX c #BB7E55",
"OX c #A9704F",
"+X c #B67F61",
"@X c #C06C41",
"#X c #C6784A",
"$X c #CB7D53",
"%X c #C87C56",
"&X c #D37E57",
"*X c #B88055",
"=X c #B28160",
"-X c #CD854E",
";X c #D3884E",
":X c #CD8353",
">X c #CD875A",
",X c #D3855C",
"<X c #D48B5D",
"1X c #DB8C5D",
"2X c #D58856",
"3X c #D5905E",
"4X c #DB915F",
"5X c #E2915E",
"6X c #CD8C63",
"7X c #CD8D6A",
"8X c #D38661",
"9X c #D58C63",
"0X c #DA8D64",
"qX c #D58D6A",
"wX c #DA8E6A",
"eX c #D98761",
"rX c #CE9164",
"tX c #D59164",
"yX c #D99062",
"uX c #DA9166",
"iX c #DB9264",
"pX c #DB9865",
"aX c #D5926B",
"sX c #DA9169",
"dX c #DB936B",
"fX c #DD9A6C",
"gX c #D7986F",
"hX c #DA8D71",
"jX c #DB9471",
"kX c #DC9A73",
"lX c #D79775",
"zX c #E18F63",
"xX c #E28D6D",
"cX c #E39264",
"vX c #E2956C",
"bX c #E49A6D",
"nX c #E9986A",
"mX c #E28F71",
"MX c #E39472",
"NX c #E39A72",
"BX c #EA9A76",
"VX c #E9A278",
"CX c #E5A282",
/* pixels */
"wX0X9X9XwXqXwXqX<XiX9X0XwX0XsXqXiXz $ p o {.vX9X0XwXqXwXsX9XiX0XiX0X8XsX0XwXwXqX0XsX0XwXwX9X0XsX9XvX}.4 7 7 l 9XwX0XiX9X<XiX<XiXsXiXiX0XwXdXwX0X",
"<X<X<X3XtX9XtXyX0XiX9X0X0X9XyX3X<Xk 4 a # {.vX9X4XyXyX9X<X<XyX9XiXiX9XiX9X9XyXyX3XyX0XyXiX9X<XyXtXbXOX# y y g 6XwX0X9X9XiXiXtXdXyX3XyX<X9X0X0XyX",
"9X0XsXsX9X9X9XtXqXqXqXqXwX9XsXsXiXP $ y # OXvXqX<X9XsXsXwXdXqXqXqXqXqXsX9XiXtXiXaXwX9X9XtX9X0XwX9XvX}.. y ; l tXqXsX9XiXdX9X9X9XwXsXwXwX9X9X0XiX",
"wX0XwXwX0XiXyXyXwXsXsXsXsX0XwXwX,XP $ & o OXMXqXbXsX0XwXwXdXsX0XwXwXwXiX0XsX0XwXwXwXwXiXyXiXwXwXiXcXOX9 a & g 6X9XsXdX8XiX0XvXsXwXwXwXwXiXyXiXsX",
"L.K.P.K.L.^.!.!.^.^.!.!.!.K.K.K.P.i 0 p o {.vX9XyX#Xq.K.J.K.^.!.^.^.!.!.!.^.K.K.P.K.^.^.^.^.U.K.J.U.n.4 7 y l 9XsX9X0XP.J.K.K.K.J.K.K.I.^.!.^.~.",
"7...:.:.7.x.a.a.y.y.j.y.a.=.:.X.:.0 4 y O {.vX6XvX@X| :.:.:.a.h.y.j.y.y.a.L.:.:.,.:.u.a.a.a.7.:...@.S 0 7 y l 9XdX0XzXq.*.:.:.:.:.:.:.u.a.y.a.u.",
"q.,.m.,.q.Q.a.k.a.a.k.a.L.:.9.#.,.f 4 y O {.vXqXmX Xo.G.9.q.L.y.a.a.k.a.k.~.:.,.D.:.i.a.a.L.F.,.5.6.D 4 7 & g 9X9X9XwXF.,.:.9.5.9.9.,.J.k.k.x.i.",
"7.:.9.:.e.x.j.j.k.j.k.j.a.=.:.5.,.f 5 y O |.vXqXvX(.=.5...q.k.j.a.k.k.j.k.x.=.:.9.:.i.z.j.x.u.:.5.6.H O p , g 9XaX9X0XF.,...9.5.2.:.:.u.k.j.x.a.",
"q.9.:.5.7.8.7.7.8.w.w.G.:.L.u.a.e.w < ; & OXvX9XdX Xo.5.5.7.7.u.q.q.u.7.e.3.y.e.e.p.7.q.w.q.q.:.1.6. .4 u 7 s yXsXiX9XJ.9.6.=.u.t.e.u.i.7.q.w.5.",
",.:.X.X.:.5.5.5.X.,.,.,.:.a.y.j.x.w & q + |.cX0XsX XX.9.5.:.:.:.:.:.:.:.:.>.p.a.Q.Q.7.:.:...:.:.9.6.D $ 4 y j <XwX0X8XF...5.5.K.x.k.a.u.=.:.9.X.",
"9.9.9.9.9.5.9.9.:.:.:.:.:.L.a.j.W.0 % d + OXkX6XsX XX.9.5.9.:.,.5.9.9.X.:.:.L.Q.a.a.7.5.9.9.9.:.#.9.J > < > P 7XwXwXwXP.X.5.:.L.j.x.d.u.=.:.9.9.",
"6.6.5.5.6.5.5.6.9.9.5.8.3.c.z.z.E.c 4 q 3 XXVXpXnX_.5.6.6.6.5.5.2.6.5.5.5.8.d.c.z.c.r.6.6.6.8.6.5.w.S 3 0 O h dXnXcXzXU.5.6.2.d.z.x.c.r.6.6.6.6.",
"S S S S S S S S F F G S S ;.~ ~ ;.r 7 q 4 b.|.A.].b.S S Z S S S Z S S H F S ~ ! ~ ;.D S G F G Z v D N 0 u 4 g R.].].`.H Z D S ~ ~ ~ ~ ~ S S G S ",
"$ $ $ $ $ & & & ; $ 9 $ # & % % q # 2 d < 7 7 # > # # $ $ $ $ & ; & $ y $ $ ; o o ; # & & & & $ $ O , * * * % $ + # , # $ 9 # O # $ & # # $ $ $ ",
"u 0 0 0 u 0 0 0 u y u u 0 0 q q 0 , p 4 y 4 8 d 4 4 u u 0 0 q q 0 0 4 0 q 0 u y u u q q 0 q u i a y 0 9 y a s $ 0 0 q 0 0 0 0 0 0 0 0 0 u 0 0 0 ",
"& % # # % & $ # $ + $ & $ $ # & X ; & X O 4 & # & % & # # , y & , y $ & + # & % + % # $ ; # # # @ 7 $ O O o o , $ $ # , , # & & + # # & y , & , ",
"k Y V R L Y T Y Y Y Y Y Y Y Y L Y Y Y T U Y U Y T ^ V T C z > y , < V z T z / z Y Y Y Y Y Y Y Y Y Y Y Y Y Y Y Y R R Y Y Y Y R U Q U H h $ , 1 x ",
"XXcX5XvXyXiX1XiXcXcXcXcXcXcXcXcXiXvXwXvXwXvXwXiXiXtXbXjXiXXX$ 5 6 V 0XpXmX0X0XcXcXcXcXcXcXcXcXcXcXcXcXcXcXcXcXcXzXcXcXcXcXcXcX5XjXaXvXZ.4 y 7 W ",
"}.kX9X7X7XaX9XlXqXqXqXqXqXqXqXqXqXaX6XaXaXaX9XaXyXtX<X6XfXOX# a ; s aXrXjXaXqXsXqXqXqXqXqXqXqXqXqXqXqXqXqXqXqXqXqXqXqXqXqXqXqXqX4X<XnXC.. a $ W ",
"|.vX1XiXdXcX1X<XiXiXiXiXiXiXiXiX0XwX0X0X0XiXwXvXwXjXqXhXBXOX# y 4 j eX3XwX<XdX0XiXiXiXiXiXiXiXiXiXiXiXiXiXiXiXiXiXyXyXyXiXsX9XyXrXrXNX'.+ d   / ",
"OXjX8XaXqX,X0X0X8X8X8X8X8X8X8X8X,X0X1X<X4X<X,XeXeX<X1X8X1X).- 9 ; z <XpX9X3X3X:X8X8X8X8X8X<X<X<X8X8X8X8X8X8X8X8X<X<X<X,X8X9X>X9XiX9XcXA.@ y $ _ ",
"|.sX1XsX X<.q.q.9.9.9.9.9.9.9.9.7.a.k.j.k.e.7.q.w.w.8.9.w.O.8 a # s 8XdXwX0XT.D.9.9.9.9.9.9.9.9.9.9.9.9.9.9.q.q.q.q.w.9.F.F.q.K./.L.Q.! O y $ _ ",
"}.NX0XsX.X| 5.9.5.5.5.5.5.5.5.5.,.K.E.L.E.q.,.X.} <.*.,.w.A p < ; s 9XtXqX9XF.0.9.9.9.9.5.5.5.5.5.5.5.5.9.5.5.5.9.X.9.@.9.9.:.i.4.y.v.~ ; y # ( ",
"|.NX<XiX#X:.5.5.:.:.:.:.:.:.:.:.5.i.x.y.k.7.:.9.9.,.5.X.6.O.$ y 3 h 1XtXdXyX<.2.,.,.:.:.:.:.:.:.:.:.:.:.:.:.:.:.9.:.9.5.9.:.=.p.x.a.Q.v 3 y + ' ",
"}.vX9XjX@X} 9.:.9.9.5.9.9.9.9.2.>.p.Q.k.k.7.:.9.7.1.q.:.2. .% y $ k 8XwXyXwXG.:.:.5.5.5.5.5.:.,.5.5.5.5.5.5.5.5.X.9.9.5.:.:.>.e.E.d.x.H ; 0 o ( ",
"}.vX9XjX@X} 9.:.e.p.a.p.p.a.a.y.i.u.>.=.7.:.5.#.:.<.I.a.d.;.; ; & k 9XaXyXwXG.5.,.9.9.5.5.5.q.K.a.a.a.a.a.a.a.a.a.i.r.5.,.D.9.9.>.7.e.S $ u $ ' ",
"}.vX9XjX@X} 9.:.7.a.x.k.k.a.k.k.I.q.:.:.9.5.9.9.=.u.x.k.x.;.; 9 $ l 9XwXyXqXG.5.,.9.9.9.5.:.e.x.k.k.k.k.k.k.k.k.k.j.a.7.,.9.9.9.:...7.M # u $ ' ",
"}.vX9XjX@X} 9.:.7.I.x.k.k.a.a.a.d.7.5.9.9.5.5.:.=.u.a.y.z.;.; y $ k 8XqXyXqXF.:.:.,.9.9.:.=.e.x.a.a.a.a.a.a.a.a.j.a.Q.7...5.5.5.,.5.q.F & u # ( ",
"}.vX9XjX@X} 9.:.>.k.j.l.j.j.j.k.a.>...9.@.5.7.>.=.J.a.a.c.;., 7 $ l 9XqXyXqXF.:.5.:.:.,.,.:.u.I.k.j.j.j.k.k.k.k.z.a.a.7.*.:.:.,.,.@.8.F ; u o ( ",
"}.vX9XjX@X} 9.:.9.u.e.e.u.u.u.e.u.>.:.9.:.7.a.a.u.J.u.7.i.;.& y 7 l 9XwXyXqXG.5.7.5.:.9.9.,.q.u.7.7.7.7.7.7.7.e.u.q.q.u.u.a.u.>.:...6.Z ; 0 O ( ",
"}.vX9XgX(.} 9.:.#.9.X.X.X.X.@...=.:.9.9.:.u.a.k.d.u.:...5.A & y $ k 8XqXyXqXF.:.:.5.9.9.9.:.:.:.@.@.@.@.@.@.@.@.X.X.:.L.x.x.x.e.:...7.F $ 0 # ( ",
"}.vX9XjX(.} 9.:.:.:.:.,.:.:.:.:.5.9.X.,.:.a.a.y.d.u.:.9.0. .y 9 $ i 8XqX9XqXF...,.,.,.:.5.5.9.9.:.:.:.:.:.:.:.:.5.:.:.p.k.y.I.q.:...7.F & y # ' ",
".XVXdXnX#X:.w.9.0.2.6.9.w.6.6.9.6.g.@.0.6.d.x.c.v.8.0.$.w.;.3 2 4 h gXvXvXvXU.$.7.8.6.6.5.w.6.$.w.6.6.w.9.5.6.8.6.6.8.s.c./.d.r.9.6.w.v 3 , # ' ",
"M.}.A.A.S.Z D S H Z Z F G A A G v S F W S ~ ;.;.~ S H A S c 6 a y 0 ].].].].H A S A  .%.S S Z  .v A S S S D D A G Z S ! ~ ~ ! S Z A Z h y y 4 U ",
"# , # # O O O ; & , ; & > - ; $ , , , # + , ; o $ $ , $ ; $ $ y < # 4 o . # $ y O $ & # > ; $ , , > > % > % & y 8 * & & & & & & $ y # & , , 7 y ",
"y y y ; ; y , , 6 0 0 0 y y y 7 9 9 y 0 y y y y 7 0 9 , , y p y 9 0 4 i p y , y 0 u i 4 u u 0 5 8 8 y y a 7 8 5 9 9 0 0 q 9 9 q 4 a 7 p 0 q q ; ",
", $ y , $ # # $ - > # $ $ - y 0 y $ X O y $ + 7 4 4 $ $ % * & . o $ + % # $ # $ ; o # o o O O p $ ; ; O o : ; o # # & & & & & $ $ $ & % $ O ; # ",
"V w w w w w b b j j j m h ; y 0 * Q E U R R R R L Y U T U T T C V Y R R U / V Y R R U E U E j = I 7 j ^ Y Y Y U Y Y Y Y Y Y Y Y Y L Y Y T E E z ",
"Y.:.5.5.5.5.5.5.3.=.:.5.1.0 < 8 5 oXbXcX9XaXsXsXfXdXdXdXiX4XzXcXiXiXsXiX4XcXiXvX9XdXdXfXyXkXZ.6 y X _ gXaXsXgXkXdXsXdXdXsXdXdXsXfXpXiXiXsXwXvX#X",
"Y.o.9.:.:.9...:.5.:.9.$.1.q , 7 q =XtXiXiXsX9X0X0X8X9XtXtXyXqXhXyX9X9XtX<X<X9XqXwX0X<XiX<XkX'.. d . _ kX9X0X0X9XwX0X0X0X9X9X0X0XwX0X1XyXaX7XgX#X",
"Y.X.9.:.:.5.9.9.5.5.:.9.} y , q 4 %XxX9XtXsX0XtXtXtXtXsXqX9XsXiX0X9XsX9XtXtXsX0XdXiXsXqX9XbXZ.  9 # ' sX1XtXrXvXqXtXiXyXiXiX3XpX9XdX9XsXsXiXvX#X",
"U.:.q.9.9.7.:.:.:.5.,.q.:.7 < y y oXxX9XpX0X1XiX9X8X<X<X<X8X8X0X8X9XwXqXqX9XtX<X,X<X9X0X<XiXV.% q # ' dXcXgXaX2XhXwX9X0X8X8X9X9X<X9X>X<X<X>X<X#X",
"q.} :.:.7.L.a.a.x.d.a.a.e.9 y 0 y *XvX9X3XY.9.<.<.u.x.k.k.a.>.q.q.q.9.9.9.5.I.Q.!.Q.Q.E.k.!.! o u # ( dX1X9X>XK.:.:.7.Q.Q.k.Q.J.q.q.q.G.w.w.G.9.",
"5.5.9.5.u.Q.k.y.k.a.k.k.a.; , y , oXvX9XiXY.@.,.:.q.x.y.y.p.:.9.:.5.5.5.5.=.a.j.a.t.y.y.y.Q.! $ u # ^ dX1XaX8X5.6.5.:.a.j.4.a.>.=.} :.:...:.9.9.",
"X.9.,.:.u.x.j.h.a.y.a.k.a.9 , y a oXMX<XpXY...,.X.q.x.j.k.K.:.9.9.,.9.9.9.:.K.E.j.j.k.k.x.!.! # 4 # ^ kX0XjX9X2.9.#.,.L.x.k.I.<.5.:.q.:.:.9.5.:.",
":.9.:.:.7.a.x.c.x.d.a.x.t.0 y q 7 oXNX9XpXY...:.:.7.x.j.d.a.:.:.9...5.} :.5.i.I.k.j.j.t.y.x.! ; y $ ( dX1XqX,X2.=.:.>.p.x.x.x.e.@.5.5.5.5.5.5.5.",
"i.a.a.L.u.7.:.7.q.q.q.q.:.7 , 4 y oXMX9XyXY.5.9.D.9.q.q.9.9.9.9.>.>.a.t.t.t.e.>.q.q.q.q.w.J.F & 0 $ ( dXwXaX<Xi.a.L.u.7.7.7.q.:.,.:.>.u.K.a.p.p.",
"z.z.y.Q.e.:.:.D.:.5.:.:.} y y q y oXMXtX3XY.@.5.:.:.:.5.:.X.5.5.:.:.Q.k.x.I.8.:.:.:.9...5.5.v 7 9 # ( dXwXaX>Xx.j.x.d.8.:.9.X.9.9.5.=.u.Q.x.k.j.",
"l.j.j.a.e.:.:.9.5.1.D.:.X.3 , y 4 +XaX,XwXY.,.} :...9.9.X.9.9...1.>.a.l.l.a.>.:.:.,.:.=.5.<.C O ; $ ( kX9XwX,XW.h.l.k.:.:.5.q.:.D.,...w.E.t.i.L.",
"c.x.c.I.f.8.6.w.+.2.6.6.,.q p y r *XVXnXvX).<.5.8.8.5.5.8.5.6.w.9.w./.c.c./.w.9.6.0.0.6.6.9.S 6 0 5 _ fXiXnX;Xk.c.c./.8.6.6.@.5.2.>.3.f.v.v.c.c.",
"B N C C N b b V n N m n V ; , y 7 { ] _ M.V b n b n K b b K b b b b C B B C b b b b b b m V j > , & s [ _ ] ] B B N B h V m b N N N m N B c c N ",
"$ O $ ; $ $ $ , < < % 7 4 O q r > , $ . $ # $ y 7 $ $ 9 $ & p * y $ ; O O ; $ , ; - - ; O 9 9 , q q 4 0 o @ 8 8 O ; # , $ $ y # 7 & 8 8 & % & p ",
"a y y y y u u p 0 y 9 y y , ; u y y i p p y y y , , y y 4 p y < u y y y p p y a 0 y y y 0 0 0 0 u u u 0 y 9 y 0 a a y y y y y p q q 4 y y y y , ",
"# # # # # # # # 3 3 O @ % #   = @ + + + @ # # . o 9 $ & y $ O O o # # # # # # # @ @ % % # # # # = # #   > o o o # # $ . $ & # , ; d ; - 4 O o . ",
") b.) ) ) ` [ ) M.b.) b.[ b.b.N.b.B.] [ ) ) B.[ b.C 3 y y g b.n.` B.] ) ) ` B.` C.M.M.] ] ] [ ` ] ) B.M.B.) ) M.] [ ` ) b.M.] g & a $ L M.n.) b.",
"vXbXbXvXvXvXvXvXkXvXfXvXkXvXpXMXvXNXaXkXNXdXvXdXVXZ.O , # ^ CXNXdXNXMXvXvXvXNXvXfXpXpXvXvXnXnXcXNXiXvXMXMXvXvXBXdXNXcXBXvXvXCXH & 7 O [.NXbXfXvX",
"yX9X8X9X9X9X9X9XeXwX8X<X<X<X0X0X9X9X9X9XwXqX9X8XNX`.# y O E iXqXwX0X0X8X8XwX8XwX>X9X9X8X9X0X0X9X0X<X0X0X8XeX0X0X2X<XiXqXwX9XcXE # p # C.dX6XqX9X",
"tXsXjXMXjXaXqXtXaXaXgXgXgXgXgXgXaXdXpXpXsXsXsXyXbXZ.% y $ ( cXqX6XaXaXfXaXaXtXfXjXjXgXaXsXsXsXsXtXtXgXaXgXaXaXrXdXaXaXqXsXaXvX' # y o A.bXtXwX9X",
":X#X#X#X:X2X-X;X,X$X%X%X%X%X$X$X$X,X:X-X:X:X:X:X;XS.$ y $ ( vX9XaXiX$X$X$X$X$X&X$X#X:X:X-X-X-X-X:X:X:X$X$X$X:X$X,X:X$X:X;X:X;X^ & y o V.vX9XjX<X",
"U...:.} 7.a.y.k.i.} 5.#.@.9...=.>.i.y.y.y.y.a.y.!.! O p # ^ vX9XzX&X9.5.X.X.@.} :.:.u.I.a.y.k.y.y.d.i.@.@.@.5.} X.:.:.a.s.a.x.t # y O A.vXtXwX#X",
"Y.X.D.5.u.a.a.x.a.=.:.5.5.9.=.=.:.a.x.z.j.a.d.a.a.! $ p % E vXtXiX,X<.:.:.:.q.9.9.5.i.Q.a.y.x.x.l.k.a.=.5.:.:.:.#.X.:.L.s.L.Q.B $ p o C.yXtXMX#X",
"Y.1.,.:.u.k.k.k.K.:.:.:.,.,.,.,.:.K.k.k.k.a.E.a.Q.! $ y # E vX9XaX<X<.:.:.:.:.:.:.:.u.k.j.j.j.k.k.E.p.:.,.,.D.m.9.:.>.a.z.E.k.t O y # `.bX9XvX#X",
"~.*.:.=.e.a.k.p.u.8.7.:.:.:.5.9.-.y.y.y.j.y.j.y.Q.D $ , # E vX9XsX,X,.5.5.5.9.9.=.7.e.a.k.a.a.a.I.L.i.>.:.5.9...=.=.3.a.s.E.x.N , p . A.vX6XwX#X",
"U.X.0.@.9.:.q.9.7.i.a.I.a.7.5.5.#.9.5.:.9.9.9.5.q.v $ y & T vXqXaXeX9.5.5.5.5.9.#.9.5.5.5.5.5.9.-.-.e.y.a.d.f.3.9.9.9.9.2.:.8.h $ s # `.bX9XMX#X",
"U...:.9.#.9.X.:.7.x.h.j.a.5.5.5.5.5.:.:.:.:.5.5.2.O.o y $ / nX0XtX<X1.:.9.@.9.5.5.5.5.5.5.5.5.5.9.:.7.Q.k.j.E.*.#.9.1.H.:.-.$.h O d . V.kX0XwX%X",
"~.:.5.5.5.5.:.5.q.L.j.k.L.9.,.,.9.9.9.,.,.9.9.9.<.M ; d # / vX6XpX2X1.:.5.5.5.=.9.9.9.9.9.9.9.5.5.:.7.E.j.a.a.*.9.5.:.5.=.>.0.w , , . C.fX1X1X$X",
"U.5.5.5.@.5.5.5.w.I.a.d.d.w.9.5.9.9.9.9.9.9.9.9.S.M $ 0 X ( jXkXwX,XF.9.9.9.9.9.9.9.9.9.9.9.9.9.6.6.8.c.s.y.d.7.5.5.,.H.9.D.&.K 7 7 5 V.aX0X0X%X",
"l f g g f g f f f z t t g f f f e e e g f f f f r f ; 9 7 0 V z z z e f r e r e f f f f f f f g f f f l l g z i r e e h r e h - y y $ i Y Y Y P ",
"& % 7 7 & 7 & & 7 9 ; ; ; 4 4 y & & & 7 7 & & & O a , $ a ; X ; # $ $ y y y $ p & & & & & & & & y y & y ; ; y 7 ; 7 7 7 $ $ 8 - 9 ; , # # # % % ",
"0 9 q 9 9 9 q 9 7 y , y y y y y 9 9 9 9 9 9 9 9 y p y 0 y p 0 a p y y y $ y 9 y 9 9 9 9 9 9 0 0 9 9 y y 9 9 y y , 7 8 p y y 4 ; 9 ; a u u 4 u y ",
"7 9 ; ; $ $ 9 9 9 $ ; ; ; 9 ; ; , , $ & $ $ & & - > ; ; - , ; - 9 O ; y 9 9 9 $ ; ; $ $ $ ; ; 9 : 9 9 $ 9 9 O ; ; y 4 o : 4 4 9 - - ; ; ; ; ; 9 "
};
